<svg width="29" height="22" viewBox="0 0 29 22" fill="none" xmlns="http://www.w3.org/2000/svg">
<path fill-rule="evenodd" clip-rule="evenodd" d="M14.2915 0.0498473L14.2746 0.0498047L14.2118 0.049834C14.1573 0.049956 14.0779 0.0503512 13.9761 0.051432C13.7724 0.0535932 13.4786 0.0584977 13.1136 0.0694528C12.3841 0.0913454 11.3675 0.13749 10.2167 0.234657C7.9403 0.426848 5.04225 0.82571 2.81105 1.67823L2.79635 1.68398C2.35808 1.85941 1.96717 2.13539 1.65515 2.48966C1.34313 2.84393 1.11874 3.26657 1.00008 3.7235L0.999106 3.72726C0.687697 4.94582 0.292969 7.2055 0.292969 10.9999C0.292969 14.7942 0.687697 17.0539 0.999106 18.2725L1.00008 18.2762C1.11874 18.7332 1.34313 19.1558 1.65515 19.5101C1.96717 19.8643 2.35807 20.1403 2.79635 20.3157L2.81105 20.3215C5.04225 21.174 7.9403 21.5729 10.2167 21.7651C11.3675 21.8622 12.3841 21.9084 13.1136 21.9303C13.4786 21.9412 13.7724 21.9461 13.9761 21.9483C14.0779 21.9494 14.1573 21.9498 14.2118 21.9499L14.2746 21.9499L14.2915 21.9499H14.2945L14.3113 21.9499L14.3741 21.9499C14.4286 21.9498 14.508 21.9494 14.6099 21.9483C14.8135 21.9461 15.1074 21.9412 15.4724 21.9303C16.2018 21.9084 17.2184 21.8622 18.3693 21.7651C20.6456 21.5729 23.5437 21.174 25.7749 20.3215L25.7896 20.3157C26.2279 20.1403 26.6188 19.8643 26.9308 19.5101C27.2428 19.1558 27.4672 18.7332 27.5859 18.2762L27.5868 18.2725C27.8982 17.0539 28.293 14.7942 28.293 10.9999C28.293 7.2055 27.8982 4.94582 27.5868 3.72726L27.5859 3.7235C27.4672 3.26657 27.2428 2.84393 26.9308 2.48966C26.6188 2.13539 26.2279 1.85941 25.7896 1.68398L25.7749 1.67823C23.5437 0.82571 20.6456 0.426848 18.3693 0.234657C17.2184 0.13749 16.2018 0.0913454 15.4724 0.0694528C15.1074 0.0584977 14.8135 0.0535932 14.6099 0.051432C14.508 0.0503512 14.4286 0.049956 14.3741 0.049834L14.3113 0.0498047L14.2945 0.0498473H14.2915ZM14.2877 19.9499L14.2984 19.9498L14.3016 19.9499L14.3147 19.9499L14.3697 19.9499C14.4188 19.9498 14.4926 19.9494 14.5886 19.9484C14.7807 19.9464 15.0616 19.9417 15.4124 19.9312C16.1146 19.9101 17.0941 19.8656 18.201 19.7722C20.4371 19.5834 23.0971 19.2018 25.0526 18.4565C25.1974 18.3974 25.3265 18.3056 25.4299 18.1882C25.5344 18.0695 25.6097 17.928 25.6497 17.7751C25.9132 16.7429 26.293 14.6529 26.293 10.9999C26.293 7.34679 25.9132 5.25685 25.6497 4.22464C25.6097 4.07168 25.5344 3.9302 25.4299 3.81154C25.3265 3.69415 25.1974 3.60233 25.0526 3.54326C23.0971 2.79791 20.4371 2.41635 18.201 2.22757C17.0941 2.13411 16.1146 2.08963 15.4124 2.06855C15.0616 2.05802 14.7807 2.05336 14.5886 2.05132C14.4926 2.0503 14.4188 2.04994 14.3697 2.04983L14.3147 2.0498L14.3016 2.04983L14.2987 2.04985L14.2876 2.04991L14.2844 2.04983L14.2713 2.0498L14.2163 2.04983C14.1671 2.04994 14.0933 2.0503 13.9973 2.05132C13.8052 2.05336 13.5244 2.05802 13.1736 2.06855C12.4713 2.08963 11.4918 2.13411 10.3849 2.22757C8.14887 2.41635 5.48887 2.79791 3.53336 3.54327C3.38858 3.60234 3.25942 3.69415 3.15603 3.81154C3.05152 3.9302 2.97626 4.07168 2.93627 4.22464C2.6727 5.25685 2.29297 7.3468 2.29297 10.9999C2.29297 14.6529 2.6727 16.7429 2.93627 17.7751C2.97626 17.928 3.05152 18.0695 3.15603 18.1882C3.25942 18.3056 3.38857 18.3974 3.53335 18.4565C5.48886 19.2018 8.14887 19.5834 10.3849 19.7722C11.4918 19.8656 12.4713 19.9101 13.1736 19.9312C13.5244 19.9417 13.8052 19.9464 13.9973 19.9484C14.0933 19.9494 14.1671 19.9498 14.2163 19.9499L14.2713 19.9499L14.2844 19.9499L14.2877 19.9499Z" fill="#858584"/>
</svg>
