<svg width="26" height="26" viewBox="0 0 26 26" fill="none" xmlns="http://www.w3.org/2000/svg">
<path fill-rule="evenodd" clip-rule="evenodd" d="M7.79297 2.5C5.03154 2.5 2.79297 4.73858 2.79297 7.5V18.5C2.79297 21.2614 5.03154 23.5 7.79297 23.5H18.793C21.5544 23.5 23.793 21.2614 23.793 18.5V7.5C23.793 4.73858 21.5544 2.5 18.793 2.5H7.79297ZM0.792969 7.5C0.792969 3.63401 3.92698 0.5 7.79297 0.5H18.793C22.659 0.5 25.793 3.63401 25.793 7.5V18.5C25.793 22.366 22.659 25.5 18.793 25.5H7.79297C3.92698 25.5 0.792969 22.366 0.792969 18.5V7.5Z" fill="#858584"/>
</svg>
