<svg width="29" height="22" viewBox="0 0 29 22" fill="none" xmlns="http://www.w3.org/2000/svg">
<path fill-rule="evenodd" clip-rule="evenodd" d="M14.2915 0.0508239L14.2746 0.0507812L14.2118 0.0508106C14.1573 0.0509325 14.0779 0.0513278 13.9761 0.0524086C13.7724 0.0545697 13.4786 0.0594743 13.1136 0.0704293C12.3841 0.092322 11.3675 0.138466 10.2167 0.235634C7.9403 0.427824 5.04225 0.826686 2.81105 1.6792L2.79635 1.68495C2.35808 1.86039 1.96717 2.13637 1.65515 2.49064C1.34313 2.84491 1.11874 3.26755 1.00008 3.72447L0.999106 3.72824C0.687697 4.9468 0.292969 7.20648 0.292969 11.0008C0.292969 14.7952 0.687697 17.0549 0.999106 18.2734L1.00008 18.2772C1.11874 18.7341 1.34313 19.1568 1.65515 19.511C1.96717 19.8653 2.35807 20.1413 2.79635 20.3167L2.81105 20.3225C5.04225 21.175 7.9403 21.5739 10.2167 21.766C11.3675 21.8632 12.3841 21.9094 13.1136 21.9312C13.4786 21.9422 13.7724 21.9471 13.9761 21.9493C14.0779 21.9504 14.1573 21.9507 14.2118 21.9509L14.2746 21.9509L14.2915 21.9509H14.2945L14.3113 21.9509L14.3741 21.9509C14.4286 21.9507 14.508 21.9504 14.6099 21.9493C14.8135 21.9471 15.1074 21.9422 15.4724 21.9312C16.2018 21.9094 17.2184 21.8632 18.3693 21.766C20.6456 21.5739 23.5437 21.175 25.7749 20.3225L25.7896 20.3167C26.2279 20.1413 26.6188 19.8653 26.9308 19.511C27.2428 19.1568 27.4672 18.7341 27.5859 18.2772L27.5868 18.2734C27.8982 17.0549 28.293 14.7952 28.293 11.0008C28.293 7.20648 27.8982 4.9468 27.5868 3.72824L27.5859 3.72447C27.4672 3.26755 27.2428 2.84491 26.9308 2.49064C26.6188 2.13637 26.2279 1.86039 25.7896 1.68495L25.7749 1.6792C23.5437 0.826686 20.6456 0.427824 18.3693 0.235634C17.2184 0.138466 16.2018 0.092322 15.4724 0.0704293C15.1074 0.0594743 14.8135 0.0545697 14.6099 0.0524086C14.508 0.0513278 14.4286 0.0509325 14.3741 0.0508106L14.3113 0.0507812L14.2945 0.0508239H14.2915ZM14.2877 19.9509L14.2984 19.9508L14.3016 19.9509L14.3147 19.9509L14.3697 19.9509C14.4188 19.9508 14.4926 19.9504 14.5886 19.9494C14.7807 19.9473 15.0616 19.9427 15.4124 19.9321C16.1146 19.9111 17.0941 19.8666 18.201 19.7731C20.4371 19.5843 23.0971 19.2028 25.0526 18.4574C25.1974 18.3984 25.3265 18.3066 25.4299 18.1892C25.5344 18.0705 25.6097 17.929 25.6497 17.7761C25.9132 16.7438 26.293 14.6539 26.293 11.0008C26.293 7.34777 25.9132 5.25782 25.6497 4.22562C25.6097 4.07265 25.5344 3.93117 25.4299 3.81251C25.3265 3.69512 25.1974 3.60331 25.0526 3.54424C23.0971 2.79889 20.4371 2.41733 18.201 2.22854C17.0941 2.13509 16.1146 2.09061 15.4124 2.06953C15.0616 2.059 14.7807 2.05433 14.5886 2.0523C14.4926 2.05128 14.4188 2.05092 14.3697 2.05081L14.3147 2.05078L14.3016 2.05081L14.2987 2.05082L14.2876 2.05088L14.2844 2.05081L14.2713 2.05078L14.2163 2.05081C14.1671 2.05092 14.0933 2.05128 13.9973 2.0523C13.8052 2.05433 13.5244 2.059 13.1736 2.06953C12.4713 2.09061 11.4918 2.13509 10.3849 2.22854C8.14887 2.41733 5.48887 2.79889 3.53336 3.54424C3.38858 3.60331 3.25942 3.69513 3.15603 3.81251C3.05152 3.93117 2.97626 4.07265 2.93627 4.22562C2.6727 5.25783 2.29297 7.34777 2.29297 11.0008C2.29297 14.6539 2.6727 16.7438 2.93627 17.7761C2.97626 17.929 3.05152 18.0705 3.15603 18.1892C3.25942 18.3066 3.38857 18.3984 3.53335 18.4574C5.48886 19.2028 8.14887 19.5843 10.3849 19.7731C11.4918 19.8666 12.4713 19.9111 13.1736 19.9321C13.5244 19.9427 13.8052 19.9473 13.9973 19.9494C14.0933 19.9504 14.1671 19.9508 14.2163 19.9509L14.2713 19.9509L14.2844 19.9509L14.2877 19.9509Z" fill="#858584"/>
</svg>
